<svg width="1024" height="1024" viewBox="0 0 270.933 270.933" xml:space="preserve" xmlns="http://www.w3.org/2000/svg"><defs><clipPath clipPathUnits="userSpaceOnUse" id="a"><path d="M0 138.528h403.676V0H0Z"/></clipPath></defs><path d="m15.423 243.505-.962-1.798-1.888-.63-.004.014-2.933.838a.999.999 0 0 0-.721.956v2.61h.994v-2.61l2.288-.653-1.01 3.097-.005-.002-.916 2.564a.5.5 0 0 1-.626.304l-2.06-.687-.314.944 2.06.687a1.492 1.492 0 0 0 1.876-.914l.753-2.109.534.174 1.501 1.502a.494.494 0 0 1 .146.352v3.317h.995v-3.317a1.482 1.482 0 0 0-.437-1.055l-1.5-1.5.832-2.551.599 1.078a.746.746 0 0 0 .652.383h2.589v-.994Zm-2.07-2.806a1.119 1.119 0 1 0-.4-.859 1.114 1.114 0 0 0 .4.859z" class="ci-primary" style="fill:#fff;stroke-width:.03108" fill="var(--ci-primary-color, #000000)"/><path d="M-.848 129.677h403.676v138.528H-.848Z" style="fill:#000;fill-opacity:1;fill-rule:nonzero;stroke:none" transform="matrix(0 .13408 .13408 0 234.972 14.727)"/><g clip-path="url(#a)" transform="matrix(0 .13408 .13408 0 252.36 14.613)"><path d="M0 0h1.166c.753 0 1.236.155 1.236.937 0 .684-.612.883-1.236.883H0Zm-.982 2.587H1.32c1.381 0 2.063-.555 2.063-1.691 0-.968-.612-1.665-1.549-1.665L3.54-3.428H2.502L.824-.769H0v-2.659h-.982zM.994-4.792c2.36 0 4.138 1.904 4.138 4.365 0 2.459-1.778 4.365-4.138 4.365-2.388 0-4.167-1.906-4.167-4.365 0-2.461 1.779-4.365 4.167-4.365M.98 4.706A5.141 5.141 0 0 0 6.113-.427 5.14 5.14 0 0 0 .98-5.561 5.14 5.14 0 0 0-4.153-.427 5.14 5.14 0 0 0 .98 4.706m-321.155 13.181c0-21.979 22.48-23.094 26.988-23.094 14.917 0 21.221 4.032 21.483 4.206.933.527 2.068 1.593 2.068 3.587v15.169a2.54 2.54 0 0 1-2.537 2.537h-18.739c-1.401 0-2.321-1.139-2.321-2.537v-1.57c0-1.401.92-2.542 2.321-2.542h10.84c1.047 0 1.897-.85 1.897-1.895l-.011-7.072c-2.141-.875-11.895-3.724-19.733-1.855-11.369 2.72-12.255 12.099-12.255 14.908 0 2.358.706 14.171 14.669 15.367 11.302.967 18.744-3.597 18.818-3.641 1.33-.689 2.705-.199 3.445 1.209.004.011 1.409 2.857 1.409 2.857.585 1.171.389 2.386-1.041 3.355-.096.055-8.019 4.35-20.313 4.35-26.232 0-26.988-20.952-26.988-23.339m196.884-2.977c-.593-1.066-1.567-1.062-2.152.006l-12.77 23.451c-.544 1.089-1.656 1.983-3.208 1.983h-6.926a2.225 2.225 0 0 1-2.221-2.218V-2.605c0-1.219.801-2.053 2.221-2.053h4.305c1.222 0 2.103.77 2.103 1.948 0 .564.017 29.629.063 29.629.048 0 15.94-29.622 15.94-29.622.575-1.074 1.988-1.079 2.575-.009 0 0 16.022 29.545 16.07 29.545.05 0 .032-28.696.032-29.543 0-1.178.942-1.948 2.163-1.948h4.959c1.222 0 2.218.609 2.218 2.219v40.571a2.222 2.222 0 0 1-2.218 2.218h-6.639c-1.695 0-2.715-.864-3.32-1.925zm106.514 25.44c-1.22 0-2.206-.805-2.206-1.979l.012-26.091c0-1.223-.691-1.501-1.538-.622l-26.126 27.098a5.102 5.102 0 0 1-3.761 1.594h-4.914c-1.544 0-2.22-.824-2.22-1.66V-3.031c0-.833.793-1.627 2.015-1.627h4.921c1.218 0 2.072.664 2.072 1.787l.025 27.486c0 1.22.69 1.499 1.535.618l27.24-28.319c.866-.866 1.917-1.572 3.786-1.572h3.697c1.222 0 2.22.998 2.22 2.219v40.571a2.224 2.224 0 0 1-2.22 2.218zm-160.449-19.58c-1.37-.316-2.911-.379-2.911-.379a121.36 121.36 0 0 0-4.434-.097h-10.36c-1.22 0-2.218.999-2.218 2.22v8.264c0 1.222.998 2.22 2.218 2.22h10.36c1.22 0 3.216-.044 4.434-.096 0 0 1.541-.06 2.911-.377 1.37-.316 2.456-.757 3.25-1.326.799-.574 1.369-1.245 1.712-2.018.34-.772.513-1.614.513-2.532a6.22 6.22 0 0 0-.513-2.532c-.343-.772-.913-1.445-1.712-2.017-.794-.572-1.88-1.018-3.25-1.33m4.207-8.285c-.701.999-.316 2.103.853 2.451 0 0 4.649 1.393 6.875 3.387 2.227 2.001 3.346 4.891 3.346 8.657 0 2.463-.431 4.533-1.288 6.217a10.646 10.646 0 0 1-3.686 4.108c-1.599 1.057-3.513 1.833-5.742 2.319-2.233.483-5.244.625-5.244.625a117.27 117.27 0 0 1-4.434.101h-22.347a2.223 2.223 0 0 1-2.216-2.218v-40.79c0-1.221.998-2 2.216-2h5.289c1.22 0 2.219.779 2.219 2 0 0 .004 16.224.014 16.224.009 0 .015.01.015.021 0 .014 10.024.025 10.024.025 1.219 0 2.794-.816 3.499-1.815l10.407-14.652c.966-1.298 1.886-1.803 3.107-1.803h6.912c1.22 0 1.411 1.15.989 1.749-.419.595-10.808 15.394-10.808 15.394m90.175 25.563V-2.764c0-1.124.998-1.894 2.22-1.894h5.381c1.221 0 2.219.779 2.219 2v40.79c0 1.222-.789 2.218-2.008 2.218h-5.592c-1.222 0-2.22-.751-2.22-2.302M-247.443 8.102c-1.221 0-1.795.909-1.282 2.013l7.76 16.624c.516 1.107 1.352 1.1 1.855-.007l7.555-16.623c.504-1.109-.082-2.018-1.3-2.018zm12.44 30.265c-.542 1.092-1.986 1.983-3.208 1.983h-2.484c-1.219 0-2.647-.902-3.174-2.001l-19.693-41.14c-.547-1.088.047-1.867 1.269-1.867h4.552c1.796 0 2.619.816 3.105 1.818.489 1.001 1.573 3.177 1.781 3.621.28.601 1.145.969 2.366.968l21.187-.012c1.221-.003 2.006-.235 2.367-.956.235-.47 1.318-2.427 1.851-3.495.536-1.068 1.438-1.944 3.188-1.944h6.603c1.221 0 1.755.927 1.315 1.787-.439.864-21.025 41.238-21.025 41.238" style="fill:#fff;fill-opacity:1;fill-rule:nonzero;stroke:none" transform="translate(366.935 51.418)"/></g></svg>
